<svg id="Capa_1" data-name="Capa 1" xmlns="http://www.w3.org/2000/svg" viewBox="0 0 595.28 841.89"><defs><style>.cls-1{fill:#fff;}</style></defs><title>Mesa de trabajo 1</title><path class="cls-1" d="M117.57,15H40.06A29.06,29.06,0,0,0,11,44.06L201.91,378.15a86,86,0,0,1,0,85.32L11,797.55a29.06,29.06,0,0,0,29.06,29.07h77.51a29.06,29.06,0,0,0,29.06-29.07L337.54,463.47a86,86,0,0,0,0-85.32L146.63,44.06A29.06,29.06,0,0,0,117.57,15Z"/><path class="cls-1" d="M349.32,20.38h-77.5a29.06,29.06,0,0,0-29.06,29.07L433.67,383.53a86,86,0,0,1,0,85.32L242.76,802.94A29.06,29.06,0,0,0,271.82,832h77.5a29.06,29.06,0,0,0,29.07-29.06l190.9-334.09a86,86,0,0,0,0-85.32L378.39,49.45A29.06,29.06,0,0,0,349.32,20.38Z"/></svg>